<svg xmlns="http://www.w3.org/2000/svg" xmlns:svg="http://www.w3.org/2000/svg" id="svg11" width="16" height="16" version="1.1" viewBox="0 0 16 16"><metadata id="metadata15"/><ellipse style="fill:#fff;fill-opacity:1" id="circle20" cx="-9.5" cy="9.5" r="2.5" transform="scale(-1,1)"/><desc id="desc4">Created with Sketch.</desc><path style="fill:#00539c;fill-opacity:1" id="path16" d="M 5,8.5 C 5,6.567 6.567,5 8.5,5 10.433,5 12,6.567 12,8.5 12,9.211 11.785,9.869 11.421,10.422 L 15,14 14,15 10.421,11.422 C 9.869,11.785 9.21,12 8.5,12 6.567,12 5,10.433 5,8.5 Z m 5.999,0 C 10.999,7.119 9.88,6 8.499,6 c -1.381,0 -2.5,1.119 -2.5,2.5 0,1.381 1.12,2.5 2.5,2.5 1.38,0 2.5,-1.119 2.5,-2.5 z"/><path style="fill:#656565;fill-opacity:1;fill-rule:evenodd;stroke:none;stroke-width:1.07337534" id="Shape-3" d="M 1,1 V 11 H 4.7617188 A 4.5,4.5 0 0 1 4.2636719,10 H 2 V 2 H 7 V 4 H 8.5 9 v 0.03125 a 4.5,4.5 0 0 1 1,0.232422 V 4 L 7,1 Z"/><rect style="fill:#ff5858;fill-opacity:1;fill-rule:evenodd;stroke:none;stroke-width:6.76123381;stroke-linecap:square;stroke-linejoin:miter;stroke-miterlimit:4;stroke-dasharray:none;stroke-opacity:1;paint-order:fill markers stroke" id="rect4488" width="5" height="3" x="0" y="3"/></svg>